<?xml version="1.0" encoding="UTF-8" standalone="no"?>
<svg
   xmlns:dc="http://purl.org/dc/elements/1.1/"
   xmlns:cc="http://creativecommons.org/ns#"
   xmlns:rdf="http://www.w3.org/1999/02/22-rdf-syntax-ns#"
   xmlns:svg="http://www.w3.org/2000/svg"
   xmlns="http://www.w3.org/2000/svg"
   xmlns:sodipodi="http://sodipodi.sourceforge.net/DTD/sodipodi-0.dtd"
   xmlns:inkscape="http://www.inkscape.org/namespaces/inkscape"
   width="34"
   height="34"
   viewBox="0 0 34 34"
   fill="none"
   version="1.1"
   id="svg94"
   sodipodi:docname="in-pending-transaction.svg"
   inkscape:version="1.0.2 (e86c870879, 2021-01-15)">
  <metadata
     id="metadata100">
    <rdf:RDF>
      <cc:Work
         rdf:about="">
        <dc:format>image/svg+xml</dc:format>
        <dc:type
           rdf:resource="http://purl.org/dc/dcmitype/StillImage" />
      </cc:Work>
    </rdf:RDF>
  </metadata>
  <defs
     id="defs98" />
  <sodipodi:namedview
     pagecolor="#ffffff"
     bordercolor="#666666"
     borderopacity="1"
     objecttolerance="10"
     gridtolerance="10"
     guidetolerance="10"
     inkscape:pageopacity="0"
     inkscape:pageshadow="2"
     inkscape:window-width="1078"
     inkscape:window-height="903"
     id="namedview96"
     showgrid="false"
     inkscape:zoom="19.529412"
     inkscape:cx="17"
     inkscape:cy="17"
     inkscape:window-x="0"
     inkscape:window-y="1015"
     inkscape:window-maximized="0"
     inkscape:current-layer="svg94" />
  <g
     opacity="0.5"
     id="g92"
     transform="rotate(180,17,17)">
    <rect
       x="1.5"
       y="1.5"
       width="31"
       height="31"
       rx="15.5"
       stroke="#736e7d"
       id="rect88" />
    <path
       fill-rule="evenodd"
       clip-rule="evenodd"
       d="m 22.5506,20.2579 0.1064,-8.9148 -8.9148,0.1064 c -0.5182,0.0062 -0.9434,0.4314 -0.9496,0.9496 -0.0062,0.5183 0.409,0.9334 0.9272,0.9272 l 5.6067,-0.0669 -7.9832,7.9832 c -0.3905,0.3905 -0.3905,1.0237 0,1.4142 0.3905,0.3905 1.0237,0.3905 1.4142,0 l 7.9832,-7.9832 -0.0669,5.6067 c -0.0062,0.5182 0.4089,0.9334 0.9272,0.9272 0.5182,-0.0062 0.9434,-0.4314 0.9496,-0.9496 z"
       fill="#736e7d"
       id="path90" />
  </g>
</svg>
