<svg width="24" height="28" viewBox="0 0 24 28" fill="none" xmlns="http://www.w3.org/2000/svg">
<path fill-rule="evenodd" clip-rule="evenodd" d="M12.001 0L24.001 7V21L12.001 28L0.000976562 21V7L12.001 0ZM11.9992 2.79999L21.5992 8.39999V19.6L11.9992 25.2L2.39919 19.6V8.39999L11.9992 2.79999ZM18.9277 14C18.9277 17.866 15.8258 21 11.9995 21C8.17315 21 5.07129 17.866 5.07129 14C5.07129 10.134 8.17315 6.99999 11.9995 6.99999C15.8258 6.99999 18.9277 10.134 18.9277 14ZM16.1556 14C16.1556 16.3196 14.2945 18.2 11.9987 18.2C9.70291 18.2 7.8418 16.3196 7.8418 14C7.8418 11.6804 9.70291 9.79997 11.9987 9.79997C14.2945 9.79997 16.1556 11.6804 16.1556 14Z" fill="#FF2D55"/>
</svg>
