<svg width="16" height="16" viewBox="0 0 16 16" fill="none" xmlns="http://www.w3.org/2000/svg">
<path d="M1 7.50018H2.34861V12.7003H1V7.50018Z" fill="#FCFCFC"/>
<path d="M14.9735 10.753C14.9676 10.6823 14.953 10.6129 14.9306 10.5454C14.8614 10.3764 14.7242 10.242 14.5508 10.1739C14.378 10.1051 14.1835 10.1083 14.0127 10.1822L13.5985 10.2542L10.9112 10.8064C10.8551 11.1831 10.6461 11.5225 10.3309 11.7475C10.0763 11.9057 9.76371 11.9487 9.47355 11.8652L6.0022 10.7068C5.83074 10.6393 5.74104 10.4561 5.79512 10.2838C5.81226 10.2021 5.86502 10.1308 5.93888 10.0877C6.01274 10.0453 6.10177 10.035 6.1842 10.0594L9.65235 11.2127C9.72884 11.2294 9.8093 11.2294 9.8858 11.2127C10.1272 11.0738 10.2729 10.8199 10.2683 10.5473C10.2808 10.3056 10.1535 10.0774 9.93921 9.95591C6.77833 8.69145 5.97979 8.03131 5.19239 8.04793H2.85385V12.1654C4.42734 12.7793 6.15773 13.4125 7.26707 13.811C8.01227 14.0817 8.83595 14.0611 9.56527 13.7525L14.5337 11.6769C14.845 11.5097 15.025 11.1774 14.9907 10.8322C14.9907 10.8123 15.0006 10.7943 15 10.7737C15 10.7653 14.9893 10.7582 14.9735 10.753Z" fill="#FCFCFC"/>
<path d="M9.90867 8.80035C10.192 7.3498 11.361 6.21452 12.8563 5.93965C11.3611 5.66478 10.192 4.53067 9.90867 3.08009C9.62534 4.53064 8.4563 5.66477 6.96105 5.93965C8.45627 6.21451 9.62652 7.34978 9.90867 8.80035Z" fill="#FCFCFC"/>
<path d="M6.69309 4.64016C6.87339 3.71709 7.61732 2.99463 8.56885 2.81971C7.61734 2.6448 6.87339 1.92309 6.69309 1C6.51278 1.92307 5.76885 2.6448 4.81733 2.81971C5.76883 2.99463 6.51354 3.71707 6.69309 4.64016Z" fill="#FCFCFC"/>
</svg>
