<svg width="16" height="16" viewBox="0 0 16 16" fill="none" xmlns="http://www.w3.org/2000/svg">
<path d="M8.07438 4.44171L5.95688 6.0752C5.60469 6.34606 5.53688 6.83361 5.80375 7.18156C6.08594 7.55242 6.635 7.62535 7.01344 7.34407L9.18563 5.73558C9.33875 5.62307 9.5575 5.64808 9.67781 5.79392C9.79813 5.93977 9.76969 6.14812 9.61656 6.26272L9.15938 6.60025L13.0356 10.0006H13.95C14.5297 10.0006 15 9.55262 15 9.00048V6.33356C15 5.78142 14.5297 5.33346 13.95 5.33346H12.1847L10.5112 4.31253C10.1766 4.10834 9.785 4 9.38688 4C8.91 4 8.44625 4.15626 8.07438 4.44171ZM8.57313 7.03363L7.44219 7.87121C6.75313 8.38375 5.75344 8.25041 5.23719 7.57534C4.75156 6.93987 4.87406 6.05228 5.515 5.55848L7.335 4.15627C7.08125 4.05417 6.80781 4.00208 6.53 4.00208C6.11875 4 5.71844 4.11668 5.375 4.33337L3.8 5.33346H2.05C1.47031 5.33346 1 5.78142 1 6.33356V9.00048C1 9.55262 1.47031 10.0006 2.05 10.0006H4.41687L6.41625 11.7382C6.845 12.1112 7.50781 12.082 7.89937 11.6737C8.01969 11.5466 8.10063 11.3986 8.14219 11.2444L8.51406 11.5695C8.94063 11.9424 9.60563 11.9153 9.99719 11.5091C10.0956 11.407 10.1678 11.2882 10.2138 11.1653C10.6381 11.4361 11.2156 11.3799 11.5722 11.009C11.9637 10.6027 11.9353 9.96932 11.5087 9.59637L8.57313 7.03363Z" fill="#FCFCFC"/>
</svg>
