<svg width="16" height="16" viewBox="0 0 16 16" fill="none" xmlns="http://www.w3.org/2000/svg">
<path fill-rule="evenodd" clip-rule="evenodd" d="M4.3372 12C4.47881 12 4.60245 11.9677 4.70882 11.9141L5.38169 11.3243C5.59374 11.217 5.80612 11.217 6.00091 11.3243L6.64997 11.9141C6.73839 11.9677 6.88 12 7.0216 12H13.9359C14.2543 12 14.5016 11.85 14.5016 11.6569V4.34308C14.5016 4.14996 14.2543 4 13.9359 4H7.0223C6.8807 4 6.75705 4.03226 6.65068 4.08588L6.00162 4.6757C5.78957 4.78294 5.57719 4.78294 5.3824 4.6757L4.70953 4.08588C4.62112 4.03226 4.47951 4 4.33791 4H2.56557C2.24714 4 1.99986 4.14996 1.99986 4.34308L1.99986 6.37527C1.99986 6.68326 2.14179 6.97407 2.38458 7.16358L3.19982 7.79987V8L2.38141 8.6435C2.14024 8.83313 1.99946 9.12296 1.99951 9.42976L1.99986 11.6569C1.99986 11.85 2.24714 12 2.56557 12H4.3372ZM5.22283 7C5.22283 6.94638 5.29329 6.89276 5.39966 6.89276H5.96568C6.0541 6.89276 6.12526 6.93549 6.12526 7V8.69693C6.12526 8.75055 6.07205 8.80417 5.96568 8.80417H5.39966C5.31125 8.80417 5.22283 8.76144 5.22283 8.69693V7ZM5.41692 5.46917H5.96568C6.07205 5.46917 6.14252 5.5119 6.14252 5.57642V6.23842C6.14252 6.29204 6.07205 6.34566 5.96568 6.34566H5.41692C5.3285 6.34566 5.24009 6.30293 5.24009 6.23842V5.57642C5.24009 5.52279 5.31054 5.46917 5.41692 5.46917ZM6.14252 10.4232C6.14252 10.4769 6.07205 10.5305 5.96568 10.5305H5.41692C5.3285 10.5305 5.24009 10.4877 5.24009 10.4232V9.44761C5.24009 9.39398 5.31054 9.34036 5.41692 9.34036H5.96568C6.0541 9.34036 6.14252 9.38309 6.14252 9.44761V10.4232ZM12.782 7.16481C12.8898 7.19116 12.9696 7.26045 13.0004 7.35529C13.0312 7.44983 13.0088 7.5556 12.9393 7.64555L12.1901 8.60211C12.1333 8.67421 12.089 8.82492 12.0966 8.91829L12.1988 10.1509C12.2067 10.2458 12.1819 10.3315 12.1291 10.3924C12.0809 10.4479 12.0132 10.4791 11.9382 10.4802C11.8963 10.4808 11.8532 10.4721 11.8103 10.4544L10.7081 10.0036C10.6303 9.97175 10.4682 9.97401 10.3913 10.008L9.30202 10.4894C9.18274 10.542 9.05867 10.5203 8.98159 10.436C8.92719 10.3766 8.89994 10.2916 8.9052 10.1965L8.97306 8.96155C8.97806 8.868 8.92928 8.71859 8.87072 8.64781L8.09515 7.71251C8.0226 7.62514 7.99736 7.52004 8.02553 7.42437C8.05398 7.3287 8.13149 7.25722 8.23849 7.22787L9.38284 6.91531C9.4693 6.89164 9.59002 6.79708 9.63617 6.71704L10.2462 5.65788C10.3032 5.55882 10.3909 5.50128 10.4866 5.49994C10.5823 5.49861 10.6715 5.55369 10.7313 5.65112L11.3706 6.69285C11.419 6.77158 11.5423 6.86273 11.6294 6.88398L12.782 7.16481Z" fill="white"/>
</svg>
