<svg width="16" height="16" viewBox="0 0 16 16" fill="none" xmlns="http://www.w3.org/2000/svg">
<path fill-rule="evenodd" clip-rule="evenodd" d="M5.94167 1V2.16949H5.35692L5.35692 1H5.94167ZM7.49332 1.96265L6.66637 2.78961L6.25289 2.37613L7.07984 1.54918L7.49332 1.96265ZM4.27313 1.54927L5.10009 2.37623L4.68661 2.7897L3.85965 1.96275L4.27313 1.54927ZM4.27313 14.2507L3.85965 13.8372L4.68661 13.0103L5.10009 13.4238L4.27313 14.2507ZM7.49332 13.8373L7.07984 14.2508L6.25289 13.4239L6.66637 13.0104L7.49332 13.8373ZM5.35692 14.8L5.35692 13.6305H5.94167V14.8H5.35692ZM7.15079 4.08587L6.50173 4.67569H6.29842L6.29822 5.46472C6.40459 5.46472 6.64263 5.5119 6.64263 5.57641L6.64263 6.23841C6.64263 6.29204 6.40459 6.33593 6.29822 6.33593V6.88302C6.38664 6.88302 6.62537 6.93548 6.62537 6.99999V8.69693C6.62537 8.75055 6.40459 8.79444 6.29822 8.79444V9.33063C6.38664 9.33063 6.64263 9.38309 6.64263 9.4476V10.4232C6.64263 10.4768 6.40459 10.5827 6.29822 10.5827L6.29818 11.252L6.50102 11.3243L7.15008 11.9141C7.2385 11.9677 7.3801 12 7.5217 12H14.436C14.7544 12 15.0017 11.85 15.0017 11.6569V4.34308C15.0017 4.14996 14.7544 3.99999 14.436 3.99999H7.52241C7.38081 3.99999 7.25716 4.03225 7.15079 4.08587ZM13.2822 7.1648C13.3899 7.19115 13.4697 7.26045 13.5005 7.35529C13.5313 7.44982 13.5089 7.55559 13.4394 7.64554L12.6902 8.60211C12.6334 8.6742 12.5891 8.82491 12.5967 8.91829L12.699 10.1509C12.7069 10.2458 12.682 10.3315 12.6293 10.3924C12.5811 10.4479 12.5133 10.4791 12.4383 10.4802C12.3965 10.4808 12.3534 10.4721 12.3104 10.4544L11.2082 10.0036C11.1304 9.97174 10.9683 9.974 10.8914 10.008L9.80215 10.4894C9.68286 10.542 9.5588 10.5203 9.48171 10.436C9.42732 10.3766 9.40006 10.2916 9.40532 10.1965L9.47319 8.96155C9.47819 8.868 9.42941 8.71859 9.37084 8.6478L8.59527 7.7125C8.52273 7.62514 8.49748 7.52003 8.52565 7.42437C8.55411 7.3287 8.63161 7.25722 8.73862 7.22786L9.88297 6.91531C9.96943 6.89163 10.0901 6.79708 10.1363 6.71704L10.7463 5.65788C10.8034 5.55882 10.8911 5.50127 10.9867 5.49994C11.0824 5.4986 11.1717 5.55368 11.2315 5.65111L11.8708 6.69285C11.9191 6.77157 12.0424 6.86272 12.1295 6.88398L13.2822 7.1648Z" fill="white"/>
<path d="M3.83622 12C3.97782 12 4.10147 11.9677 4.20784 11.9141L4.88071 11.3243L4.91593 10.5305C4.82752 10.5305 4.73911 10.4877 4.73911 10.4232V9.4476C4.73911 9.39398 4.80956 9.34036 4.91593 9.34036L4.89868 8.80417C4.81026 8.80417 4.72185 8.76144 4.72185 8.69693V7C4.72185 6.94638 4.7923 6.89276 4.89868 6.89276L4.91593 6.34566C4.82752 6.34566 4.73911 6.30293 4.73911 6.23842V5.57641C4.73911 5.52279 4.80956 5.46917 4.91593 5.46917L4.88142 4.6757L4.20855 4.08587C4.12013 4.03225 3.97853 4 3.83693 4L2.06608 3.99995C1.74765 3.99995 1.50037 4.14992 1.50037 4.34304L1.50037 6.53086C1.50037 6.74665 1.57018 6.95665 1.69936 7.1295L2.20036 7.79987V8L1.69697 8.6783C1.56903 8.85071 1.49997 9.05971 1.5 9.27441L1.50037 11.6569C1.50037 11.85 1.74765 12 2.06608 12L3.83622 12Z" fill="#FCFCFC"/>
</svg>
