<svg width="16" height="16" viewBox="0 0 16 16" fill="none" xmlns="http://www.w3.org/2000/svg">
<path d="M5.54917 4.53474C5.54917 4.25492 5.4502 4.01635 5.25227 3.81784C5.05434 3.61991 4.81519 3.52094 4.53537 3.52094C4.25556 3.52094 4.017 3.6199 3.81848 3.81784C3.62055 4.01576 3.52158 4.25492 3.52158 4.53474C3.52158 4.81455 3.62055 5.05312 3.81848 5.25164C4.01641 5.44957 4.25556 5.54854 4.53537 5.54854C4.81519 5.54854 5.05375 5.44957 5.25227 5.25164C5.45019 5.05371 5.54917 4.81455 5.54917 4.53474ZM13.9999 9.09712C13.9999 9.37693 13.9021 9.61433 13.7066 9.8099L9.81754 13.7066C9.61196 13.9022 9.37163 14 9.09654 14C8.81672 14 8.57933 13.9022 8.38376 13.7066L2.72042 8.03571C2.51956 7.84013 2.34932 7.57329 2.2097 7.23575C2.0701 6.89762 2 6.58894 2 6.30914V3.0138C2 2.73929 2.10014 2.50131 2.30101 2.30102C2.50188 2.10074 2.73927 2 3.01379 2H6.3091C6.58891 2 6.89757 2.0701 7.23569 2.20971C7.57382 2.34932 7.84302 2.52015 8.04331 2.72043L13.7066 8.37553C13.9022 8.58112 13.9999 8.82203 13.9999 9.09712Z" fill="#FCFCFC"/>
</svg>
