<svg width="16" height="16" viewBox="0 0 16 16" fill="none" xmlns="http://www.w3.org/2000/svg">
<path d="M7.99992 2.17567L13.0038 5.09506V10.9339L7.99992 13.8533L2.99603 10.9339V5.09506L7.99992 2.17567ZM7.99992 1.13302L7.5584 1.40113L2.55451 4.32053L2.11299 4.55885V11.4105L2.55451 11.6786L7.5584 14.598L7.99992 14.8661L8.44143 14.598L13.4453 11.6786L13.8868 11.4105V4.58864L13.4453 4.32053L8.44143 1.40113L7.99992 1.13302Z" fill="#FCFCFC"/>
<path fill-rule="evenodd" clip-rule="evenodd" d="M7.9998 0.999611L8.49866 1.30253L13.5034 4.22243L13.9998 4.52389V11.4753L13.5017 11.7778L8.49866 14.6967L7.9998 14.9996L7.50095 14.6967L2.49621 11.7768L1.9998 11.4753V4.49023L2.49954 4.22049L7.50095 1.30253L7.9998 0.999611ZM7.5584 1.40113L2.55451 4.32053L2.11299 4.55885V11.4105L2.55451 11.6786L7.5584 14.598L7.99992 14.8661L8.44143 14.598L13.4453 11.6786L13.8868 11.4105V4.58864L13.4453 4.32053L8.44143 1.40113L7.99992 1.13302L7.5584 1.40113ZM7.99992 2.17567L2.99603 5.09506V10.9339L7.99992 13.8533L13.0038 10.9339V5.09506L7.99992 2.17567ZM12.8906 5.16123L7.9998 2.30781L3.109 5.16123V10.8678L7.9998 13.7212L12.8906 10.8678V5.16123Z" fill="#FCFCFC"/>
<path d="M8.01295 5.78846C9.40658 5.78846 10.5373 6.91913 10.5373 8.31276C10.5373 9.70638 9.40658 10.8371 8.01295 10.8371C6.61933 10.8371 5.48865 9.70638 5.48865 8.31276C5.48865 6.91913 6.61933 5.78846 8.01295 5.78846ZM8.01295 4.99961C6.19861 4.99961 4.6998 6.47212 4.6998 8.31276C4.6998 10.1534 6.19861 11.5996 8.01295 11.5996C9.82729 11.5996 11.2998 10.1271 11.2998 8.31276C11.2998 6.49842 9.82729 4.99961 8.01295 4.99961Z" fill="#FCFCFC"/>
<path fill-rule="evenodd" clip-rule="evenodd" d="M7.9998 0.999611L8.49866 1.30253L13.5034 4.22243L13.9998 4.52389V11.4753L13.5017 11.7778L8.49866 14.6967L7.9998 14.9996L7.50095 14.6967L2.49621 11.7768L1.9998 11.4753V4.49023L2.49954 4.22049L7.50095 1.30253L7.9998 0.999611ZM7.39865 1.13067L7.9998 0.765625L8.60096 1.13067L13.6072 4.05146L14.1998 4.41135V11.5879L13.6025 11.9506L8.60095 14.8686L7.9998 15.2336L7.39863 14.8685L2.39239 11.9478L1.7998 11.5879V4.37091L2.40163 4.04606L7.39865 1.13067ZM7.9998 2.53936L3.309 5.2761V10.7529L7.9998 13.4897L12.6906 10.7529V5.2761L7.9998 2.53936ZM12.8906 5.16123L7.9998 2.30781L3.109 5.16123V10.8678L7.9998 13.7212L12.8906 10.8678V5.16123ZM10.3373 8.31276C10.3373 7.02959 9.29612 5.98846 8.01295 5.98846C6.72978 5.98846 5.68865 7.02959 5.68865 8.31276C5.68865 9.59593 6.72978 10.6371 8.01295 10.6371C9.29612 10.6371 10.3373 9.59593 10.3373 8.31276ZM4.4998 8.31276C4.4998 6.36063 6.08919 4.79961 8.01295 4.79961C9.93982 4.79961 11.4998 6.39004 11.4998 8.31276C11.4998 10.2376 9.93775 11.7996 8.01295 11.7996C6.09128 11.7996 4.4998 10.267 4.4998 8.31276ZM10.5373 8.31276C10.5373 6.91913 9.40658 5.78846 8.01295 5.78846C6.61933 5.78846 5.48865 6.91913 5.48865 8.31276C5.48865 9.70638 6.61933 10.8371 8.01295 10.8371C9.40658 10.8371 10.5373 9.70638 10.5373 8.31276ZM4.6998 8.31276C4.6998 6.47212 6.19861 4.99961 8.01295 4.99961C9.82729 4.99961 11.2998 6.49842 11.2998 8.31276C11.2998 10.1271 9.82729 11.5996 8.01295 11.5996C6.19861 11.5996 4.6998 10.1534 4.6998 8.31276Z" fill="#FCFCFC"/>
</svg>
