<svg width="16" height="16" viewBox="0 0 16 16" fill="none" xmlns="http://www.w3.org/2000/svg">
<path d="M7.1555 11.947L8.11775 11.3694L6.07637 10.1444L3 11.9901L5.04183 13.2151L7.1555 11.947Z" fill="#FCFCFC"/>
<path d="M8.39472 11.4692L7.4329 12.0463L10.1859 13.6986L13 12.0099L10.247 10.3576L8.39472 11.4692Z" fill="#FCFCFC"/>
<path d="M10.0253 10.225L8.81081 9.49634C8.81081 9.49634 8.46763 10.4144 8 10.4286C7.52181 10.4431 7.14071 9.50563 7.14071 9.50563L6.29793 10.0113L8.33931 11.2362L10.0253 10.225Z" fill="#FCFCFC"/>
<path d="M7.21135 12.1795L5.2635 13.3481L8.01652 15L9.96437 13.8313L7.21135 12.1795Z" fill="#FCFCFC"/>
<path d="M5.1608 6.28859L5.17766 6.31353C5.19819 6.34481 5.21982 6.37533 5.24144 6.40884L7.68716 9.97682C7.75865 10.0811 7.87558 10.1429 8.00058 10.1429C8.12558 10.1429 8.24251 10.0811 8.31399 9.97682L10.7539 6.41151C10.7774 6.378 10.7997 6.34561 10.8224 6.3162L10.8375 6.29349C11.2792 5.59957 11.4592 4.76674 11.3448 3.94846C11.2304 3.13019 10.829 2.38157 10.2147 1.83986C9.60029 1.2982 8.81359 1 8.00017 1C7.18638 1 6.40006 1.2982 5.78568 1.83986C5.17093 2.38153 4.76955 3.13018 4.65516 3.94846C4.54078 4.76673 4.72114 5.59912 5.16286 6.29312L5.1608 6.28859ZM8.00066 3.00319C8.37383 3.00319 8.73197 3.15396 8.99585 3.422C9.25974 3.69004 9.40824 4.05376 9.40824 4.43269C9.40824 4.81205 9.25979 5.17577 8.99585 5.44377C8.73192 5.71177 8.37378 5.86221 8.00066 5.86221C7.62753 5.86221 7.26934 5.71181 7.00546 5.44377C6.74157 5.17573 6.59307 4.81201 6.59307 4.43269C6.59307 4.05371 6.74153 3.68999 7.00546 3.422C7.26939 3.154 7.62753 3.00319 8.00066 3.00319Z" fill="#FCFCFC"/>
</svg>
