<svg width="16" height="16" viewBox="0 0 16 16" fill="none" xmlns="http://www.w3.org/2000/svg">
<path fill-rule="evenodd" clip-rule="evenodd" d="M5.17766 6.31353L5.1608 6.28859L5.16286 6.29312C4.72114 5.59912 4.54078 4.76673 4.65516 3.94846C4.76955 3.13018 5.17093 2.38153 5.78568 1.83986C6.40006 1.2982 7.18638 1 8.00017 1C8.81359 1 9.60029 1.2982 10.2147 1.83986C10.829 2.38157 11.2304 3.13019 11.3448 3.94846C11.4448 4.66387 11.3198 5.3904 10.9916 6.02551C10.7691 6.00679 10.5718 6 10.4454 6C10.0025 6 9.72144 6.32861 9.5 6.71593L7.57613 9.81483L5.24144 6.40884C5.22939 6.39016 5.21733 6.3724 5.20546 6.35493C5.19604 6.34106 5.18674 6.32737 5.17766 6.31353ZM8.99585 3.422C8.73197 3.15396 8.37383 3.00319 8.00066 3.00319C7.62753 3.00319 7.26939 3.154 7.00546 3.422C6.74153 3.68999 6.59307 4.05371 6.59307 4.43269C6.59307 4.81201 6.74157 5.17573 7.00546 5.44377C7.26934 5.71181 7.62753 5.86221 8.00066 5.86221C8.37378 5.86221 8.73192 5.71177 8.99585 5.44377C9.25979 5.17577 9.40824 4.81205 9.40824 4.43269C9.40824 4.05376 9.25974 3.69004 8.99585 3.422Z" fill="#FCFCFC"/>
<path d="M7.43703 10.0389C7.25504 9.78687 7.14071 9.50563 7.14071 9.50563L6.29793 10.0113L7.14035 10.5168L7.43703 10.0389Z" fill="#FCFCFC"/>
<path d="M7.01999 10.7106L6.07637 10.1444L3 11.9901L5.04183 13.2151L6.00239 12.6388C6.01437 12.4431 6.0714 12.25 6.17437 12.0727L7.01999 10.7106Z" fill="#FCFCFC"/>
<path d="M6.01284 12.8986L5.2635 13.3481L8.01652 15L9.68327 14H7.23309C6.79018 14 6.38603 13.7617 6.16459 13.3542C6.08572 13.209 6.03498 13.0548 6.01284 12.8986Z" fill="#FCFCFC"/>
<path d="M14.4664 11.6094L11.9103 7.44439C11.7408 7.16493 11.4389 7 11.1 7C10.761 7 10.4591 7.16493 10.2897 7.44439L7.73356 11.6094C7.55688 11.8962 7.55688 12.2403 7.72608 12.534C7.89556 12.8281 8.2049 13 8.5439 13H13.6561C14.0023 13 14.3044 12.8281 14.4739 12.534C14.6434 12.2403 14.6434 11.8962 14.4664 11.6094ZM11.1 12.0253C10.879 12.0253 10.7023 11.8534 10.7023 11.6383C10.7023 11.4232 10.879 11.2513 11.1 11.2513C11.321 11.2513 11.4976 11.4232 11.4976 11.6383C11.4976 11.8531 11.321 12.0253 11.1 12.0253ZM11.5273 9.07887L11.3874 10.6775C11.3728 10.8282 11.2326 10.9427 11.0781 10.9284C10.9383 10.9141 10.8278 10.8066 10.8203 10.6775L10.6804 9.07887C10.6583 8.84954 10.8352 8.64876 11.0709 8.6272C11.3066 8.60564 11.5129 8.77785 11.5351 9.00719C11.5273 9.02875 11.5273 9.05731 11.5273 9.07887Z" fill="#FCFCFC"/>
</svg>
