<svg width="16" height="16" viewBox="0 0 16 16" fill="none" xmlns="http://www.w3.org/2000/svg">
<path fill-rule="evenodd" clip-rule="evenodd" d="M10.5 10.9344C10.3691 10.9778 10.2314 11 10.0898 11C9.40654 11 9 9.99997 8 9.99997C7.09376 9.99997 6.45465 10.9979 5.72437 10.9979C5.5856 10.9979 5.45019 10.9762 5.32094 10.9344L3.99985 13.7833C3.97803 13.8753 4.01048 13.972 4.0849 14.0354C4.15988 14.0988 4.26451 14.12 4.3602 14.0909L5.45523 13.7537C5.63038 13.9091 5.96889 14.2072 6.30574 14.4941C6.35778 14.5385 6.42493 14.5623 6.49375 14.5623C6.52229 14.5623 6.55083 14.5581 6.5788 14.5501C6.67393 14.5216 6.74555 14.4471 6.76737 14.3557L8 11L8.89757 14.3557C8.91939 14.4471 8.99101 14.5216 9.08614 14.5501C9.11411 14.5581 9.14265 14.5623 9.17119 14.5623C9.23945 14.5623 9.3066 14.5385 9.3592 14.4941C9.69605 14.2072 10.0346 13.9091 10.2091 13.7537L11.3047 14.0909C11.3999 14.12 11.5051 14.0988 11.5795 14.0354C11.6539 13.972 11.6869 13.8753 11.6651 13.7833L10.5 10.9344Z" fill="white"/>
<path d="M11.9803 5.02436C11.9331 4.87194 11.8071 4.7593 11.6353 4.71473L9.7975 4.23975C9.65864 4.2038 9.4634 4.05522 9.38778 3.9282L8.38825 2.24732C8.29476 2.09011 8.15315 2 8.00007 2C7.847 2 7.70539 2.09011 7.6119 2.24732L6.61236 3.9282C6.53675 4.05522 6.34151 4.20379 6.20265 4.23975L4.3649 4.71426C4.19304 4.75883 4.06746 4.87146 4.0198 5.02388C3.9726 5.1763 4.01064 5.34501 4.12475 5.4864L5.34468 7.00004C5.4368 7.11459 5.5115 7.35472 5.50141 7.50427L5.36529 9.47852C5.35475 9.63046 5.39646 9.76707 5.48216 9.8634C5.60361 10 5.80159 10.0374 5.99362 9.9559L7.74701 9.21012C7.87075 9.15739 8.13014 9.15739 8.25388 9.21012L10.0073 9.9559C10.0756 9.98514 10.1443 10 10.2112 10C10.3313 10 10.4404 9.95159 10.5187 9.86387C10.6044 9.76754 10.6461 9.63094 10.6356 9.479L10.4995 7.50474C10.4894 7.35519 10.5636 7.11507 10.6562 7.00099L11.8761 5.48735C11.9893 5.345 12.0276 5.17629 11.9803 5.02436Z" fill="white"/>
</svg>
