<svg width="16" height="16" viewBox="0 0 16 16" fill="none" xmlns="http://www.w3.org/2000/svg">
<g clipPath="url(#clip0_2423_8783)">
<path d="M4.76336 2.35598H5.03275C5.43733 1.31387 5.97716 0.49768 6.60674 -0.000976562C3.23575 0.588186 0.628664 3.26373 0.0444698 6.61795C0.493474 6.02774 1.30264 5.48427 2.29142 5.0762V4.84927C2.29142 3.48966 3.37 2.35598 4.76336 2.35598Z" fill="#FCFCFC"/>
<path d="M11.4598 4.44236C11.0552 2.40196 10.2914 0.770503 9.30264 0.000328055C12.6281 0.589566 15.2808 3.21916 15.8649 6.61925C15.1001 5.62097 13.5271 4.84947 11.4598 4.44236Z" fill="#FCFCFC"/>
<path d="M7.95483 4.07909H7.14567C6.92068 3.39927 6.47167 2.85484 5.8875 2.58312C6.47169 1.13293 7.23548 0.316773 7.95486 0.316773C8.94364 0.316773 9.9778 1.81275 10.562 4.26016C9.70747 4.16958 8.85287 4.07909 7.95483 4.07909Z" fill="#FCFCFC"/>
<path d="M2.51547 5.93719C1.16747 6.48162 0.358308 7.252 0.358308 7.97759C0.358308 8.975 1.84149 10.0628 4.26805 10.6521C4.13383 9.83586 4.08844 8.92913 4.08844 8.0224V7.2968C3.41444 7.07086 2.83025 6.5722 2.51547 5.93719Z" fill="#FCFCFC"/>
<path d="M7.00014 11.0333C6.35803 10.9967 5.74287 10.9257 5.16802 10.8339C5.03283 9.97298 4.94303 9.06625 4.94303 8.02326V7.38825C6.2012 7.25189 7.18987 6.25468 7.23525 4.98565H7.95464C8.94341 4.98565 9.88681 5.07623 10.7413 5.21258C10.8304 5.78003 10.8997 6.36737 10.9367 7.00049C8.75675 7.03432 7 8.812 7 11C7 11.0111 7.00005 11.0222 7.00014 11.0333Z" fill="#FCFCFC"/>
<path d="M14.6437 9.3473C14.1216 8.19806 13.0717 7.3394 11.8036 7.08076C11.7803 6.48069 11.7303 5.89405 11.6405 5.34793C14.0217 5.93814 15.5501 7.02603 15.5501 7.97759C15.5501 8.44098 15.2299 8.91426 14.6437 9.3473Z" fill="#FCFCFC"/>
<path d="M9.36816 14.6531C8.92249 15.2852 8.42837 15.6386 7.95483 15.6386C6.96603 15.6386 5.9319 14.1426 5.34768 11.6952C5.90348 11.7882 6.48026 11.8389 7.09302 11.8615C7.36735 13.1113 8.22605 14.1421 9.36816 14.6531Z" fill="#FCFCFC"/>
<path d="M10.3469 14.9469C10.5594 14.9818 10.7776 15 11 15C11.6229 15 12.2126 14.8576 12.7382 14.6036C11.7676 15.2997 10.6384 15.7881 9.41891 16.001C9.75609 15.7422 10.0672 15.385 10.3469 14.9469Z" fill="#FCFCFC"/>
<path d="M14.5919 12.7623C14.8532 12.2306 15 11.6324 15 11C15 10.777 14.9817 10.5583 14.9467 10.3452C15.3747 10.0717 15.7297 9.77351 16 9.46037C15.7856 10.6738 15.2934 11.7971 14.5919 12.7623Z" fill="#FCFCFC"/>
<path d="M6.56031 16.001C5.57154 15.2308 4.80773 13.5993 4.40315 11.5589C2.38125 11.1509 0.808176 10.3346 -0.00195312 9.38206C0.582167 12.7373 3.23481 15.4117 6.56031 16.001Z" fill="#FCFCFC"/>
<path d="M4.76331 3.21791C5.66228 3.21791 6.38167 3.94351 6.38167 4.85024C6.38167 5.75697 5.66228 6.48257 4.76331 6.48257C3.86434 6.48257 3.14495 5.75698 3.14495 4.85024C3.14495 3.94351 3.86434 3.21791 4.76331 3.21791Z" fill="#FCFCFC"/>
<path d="M13 10.4H9V11.9H13V10.4Z" fill="#FCFCFC"/>
</g>
<defs>
<clipPath id="clip0_2423_8783">
<rect width="16" height="16" fill="white"/>
</clipPath>
</defs>
</svg>
