<svg width="16" height="16" viewBox="0 0 16 16" fill="none" xmlns="http://www.w3.org/2000/svg">
<g clip-path="url(#clip0_2644_3386)">
<path d="M4.78622 2.35667H5.05558C5.46011 1.31468 5.99987 0.498596 6.62937 0C3.25879 0.589091 0.652025 3.26431 0.0679019 6.61811C0.516851 6.02798 1.32592 5.48458 2.31457 5.07655V4.84966C2.31457 3.49021 3.39303 2.35667 4.78622 2.35667Z" fill="#FCFCFC"/>
<path d="M11.4818 4.4428C11.0773 2.40264 10.3136 0.771386 9.32494 0.00130451C12.65 0.59047 15.3024 3.21974 15.8864 6.61942C15.1217 5.62125 13.5489 4.84985 11.4818 4.4428Z" fill="#FCFCFC"/>
<path d="M7.9773 4.07957H7.16824C6.94328 3.39984 6.49432 2.85547 5.91022 2.58378C6.49434 1.13376 7.25803 0.317711 7.97733 0.317711C8.96598 0.317711 10 1.8135 10.5842 4.26061C9.72972 4.17005 8.87523 4.07957 7.9773 4.07957Z" fill="#FCFCFC"/>
<path d="M2.5386 5.93744C1.19077 6.48181 0.381702 7.25209 0.381702 7.97759C0.381702 8.97488 1.8647 10.0626 4.29096 10.6517C4.15676 9.83564 4.11138 8.92901 4.11138 8.02239L4.11138 7.29689C3.43747 7.07097 2.85334 6.57238 2.5386 5.93744Z" fill="#FCFCFC"/>
<path d="M7.00013 11.0317C6.36626 10.9946 5.75886 10.9242 5.19082 10.8336C5.05565 9.97274 4.96586 9.06612 4.96586 8.02326V7.38832C6.22388 7.25198 7.21243 6.2549 7.25781 4.98602H7.97711C8.96576 4.98602 9.90904 5.07659 10.7634 5.21292C10.8525 5.78018 10.9218 6.36732 10.9588 7.00021C8.76863 7.02233 7 8.80462 7 11C7 11.0106 7.00005 11.0211 7.00013 11.0317Z" fill="#FCFCFC"/>
<path d="M14.649 9.35912C14.1318 8.21066 13.0883 7.35034 11.8258 7.08534C11.8026 6.48379 11.7525 5.89566 11.6625 5.34825C14.0434 5.93839 15.5717 7.02615 15.5717 7.97759C15.5717 8.44521 15.2456 8.92288 14.649 9.35912Z" fill="#FCFCFC"/>
<path d="M9.38469 14.6604C8.94058 15.2874 8.44873 15.6376 7.9773 15.6376C6.98862 15.6376 5.95461 14.1418 5.37046 11.6947C5.91928 11.7866 6.48855 11.8371 7.09272 11.8602C7.36806 13.1166 8.23393 14.1519 9.38469 14.6604Z" fill="#FCFCFC"/>
<path d="M10.3665 14.9501C10.5728 14.9829 10.7844 15 11 15C11.6491 15 12.2621 14.8454 12.8042 14.571C11.8239 15.2839 10.679 15.7839 9.4412 16C9.77731 15.742 10.0875 15.3863 10.3665 14.9501Z" fill="#FCFCFC"/>
<path d="M14.545 12.8546C14.8356 12.3002 15 11.6693 15 11C15 10.7813 14.9824 10.5666 14.9487 10.3574C15.3854 10.0806 15.7471 9.77806 16.0215 9.46019C15.8002 10.7126 15.2829 11.869 14.545 12.8546Z" fill="#FCFCFC"/>
<path d="M6.58295 16C5.59429 15.2299 4.83058 13.5987 4.42605 11.5585C2.40439 11.1505 0.831515 10.3343 0.0214844 9.38189C0.605533 12.7367 3.25785 15.4108 6.58295 16Z" fill="#FCFCFC"/>
<path d="M4.78617 3.2185C5.68503 3.2185 6.40433 3.94401 6.40433 4.85063C6.40433 5.75725 5.68503 6.48275 4.78617 6.48275C3.8873 6.48275 3.16801 5.75725 3.16801 4.85063C3.16801 3.94401 3.88731 3.2185 4.78617 3.2185Z" fill="#FCFCFC"/>
<path d="M10.7644 11.7821V11.7174C10.7656 11.4954 10.784 11.3184 10.8196 11.1865C10.8564 11.0546 10.9099 10.948 10.98 10.8668C11.05 10.7856 11.1344 10.712 11.233 10.6461C11.3066 10.5953 11.3725 10.5427 11.4307 10.4881C11.4889 10.4336 11.5353 10.3733 11.5697 10.3073C11.6042 10.2401 11.6214 10.1652 11.6214 10.0828C11.6214 9.99524 11.6018 9.91849 11.5626 9.85252C11.5234 9.78655 11.4705 9.73581 11.404 9.70029C11.3387 9.66476 11.2662 9.647 11.1866 9.647C11.1094 9.647 11.0364 9.6654 10.9675 9.70219C10.8986 9.73771 10.8422 9.79099 10.7982 9.86204C10.7543 9.93181 10.7305 10.0187 10.7269 10.1227H10C10.0059 9.86901 10.063 9.65969 10.171 9.49477C10.2791 9.32858 10.4223 9.20488 10.6004 9.12369C10.7786 9.04123 10.9752 9 11.1902 9C11.4266 9 11.6356 9.04187 11.8174 9.1256C11.9991 9.20806 12.1416 9.32794 12.245 9.48525C12.3483 9.64256 12.4 9.83222 12.4 10.0542C12.4 10.2027 12.3768 10.3346 12.3305 10.45C12.2854 10.5642 12.2218 10.6657 12.1399 10.7545C12.0579 10.8421 11.9611 10.9213 11.8494 10.9924C11.7556 11.052 11.6784 11.1142 11.6178 11.1789C11.5584 11.2436 11.5139 11.3184 11.4842 11.4034C11.4557 11.4884 11.4408 11.5931 11.4396 11.7174V11.7821H10.7644ZM11.1171 13C10.9984 13 10.8968 12.9556 10.8125 12.8668C10.7293 12.7767 10.6883 12.6689 10.6895 12.5433C10.6883 12.419 10.7293 12.3124 10.8125 12.2236C10.8968 12.1348 10.9984 12.0904 11.1171 12.0904C11.23 12.0904 11.3292 12.1348 11.4147 12.2236C11.5002 12.3124 11.5436 12.419 11.5448 12.5433C11.5436 12.627 11.5228 12.7038 11.4824 12.7735C11.4432 12.8421 11.3915 12.8972 11.3274 12.9391C11.2633 12.9797 11.1932 13 11.1171 13Z" fill="white"/>
</g>
<defs>
<clipPath id="clip0_2644_3386">
<rect width="16" height="16" fill="white"/>
</clipPath>
</defs>
</svg>
