<svg width="16" height="16" viewBox="0 0 16 16" fill="none" xmlns="http://www.w3.org/2000/svg">
<g clip-path="url(#clip0_2423_8776)">
<path d="M4.76375 2.35667H5.03311C5.43765 1.31468 5.9774 0.498595 6.60691 0C3.23633 0.58909 0.629564 3.26431 0.0454407 6.61811C0.49439 6.02798 1.30346 5.48458 2.29211 5.07655V4.84966C2.29211 3.49021 3.37056 2.35667 4.76375 2.35667Z" fill="#FCFCFC"/>
<path d="M11.4594 4.4428C11.0548 2.40264 10.2911 0.771385 9.30248 0.00130398C12.6276 0.59047 15.2799 3.21974 15.8639 6.61942C15.0993 5.62125 13.5264 4.84985 11.4594 4.4428Z" fill="#FCFCFC"/>
<path d="M7.95484 4.07957L7.14577 4.07957C6.92081 3.39984 6.47186 2.85547 5.88776 2.58378C6.47188 1.13376 7.23557 0.31771 7.95487 0.31771C8.94352 0.31771 9.97756 1.8135 10.5617 4.26061C9.70726 4.17005 8.85276 4.07957 7.95484 4.07957Z" fill="#FCFCFC"/>
<path d="M2.51614 5.93744C1.16831 6.48181 0.35924 7.25209 0.35924 7.97759C0.35924 8.97488 1.84224 10.0626 4.2685 10.6517C4.1343 9.83564 4.08892 8.92901 4.08892 8.02239V7.29689C3.415 7.07097 2.83088 6.57238 2.51614 5.93744Z" fill="#FCFCFC"/>
<path d="M7.00014 11.033C6.35815 10.9963 5.74311 10.9253 5.16836 10.8336C5.03319 9.97274 4.9434 9.06612 4.9434 8.02326V7.38832C6.20142 7.25198 7.18997 6.2549 7.23534 4.98602H7.95464C8.9433 4.98602 9.88658 5.07659 10.7409 5.21292C10.83 5.78027 10.8994 6.36749 10.9363 7.0005C8.75656 7.03452 7 8.81213 7 11C7 11.011 7.00005 11.022 7.00014 11.033Z" fill="#FCFCFC"/>
<path d="M14.6434 9.34673C14.1212 8.19763 13.0713 7.33914 11.8031 7.08066C11.7799 6.48074 11.7298 5.89424 11.6401 5.34825C14.0209 5.93839 15.5492 7.02615 15.5492 7.97759C15.5492 8.44078 15.2292 8.91385 14.6434 9.34673Z" fill="#FCFCFC"/>
<path d="M9.3676 14.6528C8.92208 15.2845 8.42817 15.6376 7.95484 15.6376C6.96616 15.6376 5.93215 14.1418 5.348 11.6947C5.90367 11.7877 6.48031 11.8384 7.09291 11.861C7.36708 13.1108 8.22562 14.1417 9.3676 14.6528Z" fill="#FCFCFC"/>
<path d="M10.3462 14.9468C10.5589 14.9818 10.7773 15 11 15C11.6209 15 12.2087 14.8585 12.733 14.6061C11.7636 15.3003 10.6361 15.7875 9.41873 16C9.75569 15.7414 10.0666 15.3845 10.3462 14.9468Z" fill="#FCFCFC"/>
<path d="M14.5944 12.757C14.8542 12.2267 15 11.6304 15 11C15 10.7767 14.9817 10.5577 14.9465 10.3444C15.3742 10.0712 15.7289 9.77311 15.999 9.46019C15.785 10.6715 15.2941 11.793 14.5944 12.757Z" fill="#FCFCFC"/>
<path d="M6.56049 16C5.57183 15.2299 4.80812 13.5987 4.40359 11.5585C2.38193 11.1505 0.809054 10.3343 -0.000976562 9.38189C0.583072 12.7367 3.23539 15.4108 6.56049 16Z" fill="#FCFCFC"/>
<path d="M4.7637 3.2185C5.66257 3.2185 6.38186 3.94401 6.38186 4.85063C6.38186 5.75725 5.66257 6.48275 4.7637 6.48275C3.86484 6.48275 3.14555 5.75725 3.14555 4.85063C3.14555 3.94401 3.86484 3.2185 4.7637 3.2185Z" fill="#FCFCFC"/>
<path d="M9.52886 10.118L11.5603 12.1639L10.5315 13.2L8.5 11.1542L9.52886 10.118Z" fill="#FCFCFC"/>
<path d="M12.4711 9.20001L9.7275 11.9631L10.7564 12.9993L13.5 10.2362L12.4711 9.20001Z" fill="#FCFCFC"/>
</g>
<defs>
<clipPath id="clip0_2423_8776">
<rect width="16" height="16" fill="white"/>
</clipPath>
</defs>
</svg>
